<svg xmlns="http://www.w3.org/2000/svg" viewBox="0 0 1601.11 179.25"><title>logo-s0</title><g id="5f88c044-dd2a-4ffc-977c-38ff9729e64e" data-name="Ebene 2"><g id="fd74c95d-2a4d-4ba6-a927-03ff9ce19754" data-name="Ebene 1"><g id="e90d1b41-4fb7-4dd6-8bd0-191a6ee25fdd" data-name="logo-s"><path d="M0,91.75V8A4.36,4.36,0,0,1,1.13,5,4,4,0,0,1,4.25,3.75,3.73,3.73,0,0,1,7.13,5,4.35,4.35,0,0,1,8.25,8V91.75a92.93,92.93,0,0,0,4.63,29.63,87,87,0,0,0,12.5,24.5A66.56,66.56,0,0,0,44,163.13a51.19,51.19,0,0,0,23,7.62v-17.5a4.36,4.36,0,0,1,1.13-3A3.69,3.69,0,0,1,71,149q11,0,18.75-5.5a44.32,44.32,0,0,0,12.63-13.75,62.6,62.6,0,0,0,7.12-18.25,87.59,87.59,0,0,0,2.25-19.25V22.5A4,4,0,0,1,113,19.38a4.32,4.32,0,0,1,3-1.13c2.66,0,4,1.42,4,4.25V92.25a97.22,97.22,0,0,1-2.5,21.5,68.1,68.1,0,0,1-8,20.13,54.3,54.3,0,0,1-14,15.5A40.1,40.1,0,0,1,75.25,157v18A4.27,4.27,0,0,1,71,179.25q-17,0-30.12-8a76.06,76.06,0,0,1-22.25-20.62A94.8,94.8,0,0,1,4.75,122.38,104.9,104.9,0,0,1,0,91.75ZM22,28a4.36,4.36,0,0,1,1.13-3,4,4,0,0,1,3.12-1.25A3.73,3.73,0,0,1,29.13,25a4.35,4.35,0,0,1,1.12,3V92.25a73.25,73.25,0,0,0,1.5,14.63,71.09,71.09,0,0,0,4.5,14.25A52.88,52.88,0,0,0,44,133.75a46.67,46.67,0,0,0,11,9.75,4.81,4.81,0,0,1,2,2.63,3.55,3.55,0,0,1-.5,3.12A3.69,3.69,0,0,1,53,151a4,4,0,0,1-2.25-.5q-13.5-8.25-21.12-23.87A77.26,77.26,0,0,1,22,92.25ZM89,169.75a56.66,56.66,0,0,0,19.63-12.37,76.52,76.52,0,0,0,14-18.5,92.29,92.29,0,0,0,8.5-22.13,96.88,96.88,0,0,0,2.87-23V8.25a4.36,4.36,0,0,1,1.13-3A3.69,3.69,0,0,1,138,4a4.13,4.13,0,0,1,3,1.25,4.13,4.13,0,0,1,1.25,3v85.5A107.2,107.2,0,0,1,129.5,143.5,83.53,83.53,0,0,1,113.88,164,58.27,58.27,0,0,1,92,177.25q-4.26.75-5.25-2.25a3.7,3.7,0,0,1,0-3.25A3.81,3.81,0,0,1,89,169.75ZM117.5,4A4.67,4.67,0,0,1,120,6.38a4.72,4.72,0,0,1,.25,3.37V10A4.35,4.35,0,0,1,116,13a5.76,5.76,0,0,1-3.75-2.5,4.35,4.35,0,0,1-.5-3.5V6.75a4.34,4.34,0,0,1,4.25-3,1.65,1.65,0,0,1,.75.13A1.76,1.76,0,0,0,117.5,4Z"/><path d="M194.75,176.5c-2.5-.5-3.92-1.66-4.25-3.5L166.75,6.25a3,3,0,0,1,.62-3,4.65,4.65,0,0,1,2.88-1.5,5.08,5.08,0,0,1,3,.88,3.68,3.68,0,0,1,1.5,2.62l22,153,64-134.75a4,4,0,0,1,3.75-2.25,2.47,2.47,0,0,1,1.75.5,3.35,3.35,0,0,1,2.12,2.13,3.7,3.7,0,0,1-.12,3.12L198.5,174A4,4,0,0,1,194.75,176.5Zm10-84a3.6,3.6,0,0,1-2.63-1.12,6.6,6.6,0,0,1-1.62-2.63L190.25,6.25q-.51-4,3.5-4.5a5.08,5.08,0,0,1,3,.88,3.68,3.68,0,0,1,1.5,2.62l10.5,82.5q.5,4-3.5,4.5ZM328,176.5a4,4,0,0,1-3.75-2.5L275.5,62.25l-46.25,98.5a4,4,0,0,1-3.75,2.5,3.92,3.92,0,0,1-1.75-.5,4.29,4.29,0,0,1-2.13-2.37,3.75,3.75,0,0,1,.13-3.13l50-106.5a4,4,0,0,1,3.75-2.5c2,0,3.25.84,3.75,2.5L326,157.5,348,5.25a3.62,3.62,0,0,1,1.5-2.62,5,5,0,0,1,3-.88,4.66,4.66,0,0,1,2.87,1.5,3,3,0,0,1,.63,3L332.25,173a4,4,0,0,1-3.75,3.5Zm-30.75-13.25a3.7,3.7,0,0,1-3.75-2.5l-24.25-59a3.73,3.73,0,0,1-.13-3.12,3.41,3.41,0,0,1,2.38-2.13A3.83,3.83,0,0,1,273,96a3.49,3.49,0,0,1,3.75,2.75l24.5,59a4.52,4.52,0,0,1-.13,3.13A3.34,3.34,0,0,1,299,163ZM315.5,94c-3-.5-4.34-2.08-4-4.75l10.5-70a3.64,3.64,0,0,1,4-3.5.77.77,0,0,1,.5.25,4.66,4.66,0,0,1,2.87,1.5,3,3,0,0,1,.63,3L319.75,90.25Q319,94,315.5,94ZM328,10.75a5.76,5.76,0,0,1-3.75-2.5,4.35,4.35,0,0,1-.5-3.5V4.5a4.34,4.34,0,0,1,4.25-3,1.65,1.65,0,0,1,.75.13,1.76,1.76,0,0,0,.75.12A3.84,3.84,0,0,1,332.25,4a4.27,4.27,0,0,1,0,3.5v.25Q331.5,10.75,328,10.75Z"/><path d="M385.25,82.25A4.27,4.27,0,0,1,381,78V5a4.09,4.09,0,0,1,1.25-3,4.09,4.09,0,0,1,3-1.25A3.71,3.71,0,0,1,388.12,2a4.36,4.36,0,0,1,1.13,3V74H453.5a4.36,4.36,0,0,1,3,1.13A3.71,3.71,0,0,1,457.75,78a4.27,4.27,0,0,1-4.25,4.25Zm0,94.5A4.27,4.27,0,0,1,381,172.5V100a4.27,4.27,0,0,1,4.25-4.25H453.5a4.27,4.27,0,0,1,4.25,4.25,3.71,3.71,0,0,1-1.25,2.88,4.35,4.35,0,0,1-3,1.12H389.25v64.5H476c2.66,0,4,1.34,4,4a4.32,4.32,0,0,1-1.13,3,3.71,3.71,0,0,1-2.87,1.25Zm20.5-167a3.68,3.68,0,0,1-2.88-1.25,4.31,4.31,0,0,1-1.12-3c0-2.66,1.33-4,4-4H476a4.36,4.36,0,0,1,3,1.13,3.71,3.71,0,0,1,1.25,2.87,4.09,4.09,0,0,1-1.25,3,4.09,4.09,0,0,1-3,1.25Zm69.75,13.5a4.27,4.27,0,0,1,4.25,4.25,3.71,3.71,0,0,1-1.25,2.88,4.35,4.35,0,0,1-3,1.12H410.75v28a4.27,4.27,0,0,1-4.25,4.25,3.68,3.68,0,0,1-2.88-1.25,4.31,4.31,0,0,1-1.12-3v-32a4.35,4.35,0,0,1,1.12-3,3.71,3.71,0,0,1,2.88-1.25Zm-69,90.25a4.36,4.36,0,0,1,3,1.13,4,4,0,0,1,1.25,3.12v29.5h50A4.27,4.27,0,0,1,465,151.5a3.71,3.71,0,0,1-1.25,2.88,4.35,4.35,0,0,1-3,1.12H406.5q-4,0-4-4V117.75Q402.5,113.51,406.5,113.5ZM476.25,147a3.79,3.79,0,0,1,2.5,2.13,4.72,4.72,0,0,1,.25,3.37v.25a4.35,4.35,0,0,1-4.25,3,6,6,0,0,1-3.75-2.37,4.52,4.52,0,0,1-.5-3.63,4.34,4.34,0,0,1,4.25-3A3.63,3.63,0,0,1,476.25,147Z"/><path d="M577.25,176a4.31,4.31,0,0,1-3-1.12,4,4,0,0,1-1.25-3.13V5.5a3.67,3.67,0,0,1,1.25-2.87,4.32,4.32,0,0,1,3-1.13h42a131.47,131.47,0,0,1,22.37,1.88A57.05,57.05,0,0,1,661,10.25,38,38,0,0,1,674.62,24q5.13,8.76,5.13,22.5a39.4,39.4,0,0,1-.75,7.75A3.36,3.36,0,0,1,677.37,57a6.43,6.43,0,0,1-3.12.75A5.16,5.16,0,0,1,671.5,56a3.12,3.12,0,0,1-.5-3c.16-1,.29-2,.37-3.12s.13-2.21.13-3.38q0-11.74-4.5-19a30.21,30.21,0,0,0-12-11.12,53,53,0,0,0-16.75-5.25,128.65,128.65,0,0,0-19-1.38h-38v162C581.25,174.59,579.91,176,577.25,176Zm51.5-22.25h-29.5c-2.67,0-4-1.41-4-4.25V26.75c0-2.66,1.33-4,4-4h25.5q10.5,0,16.75,2.75a25.43,25.43,0,0,1,9.62,6.88,20.67,20.67,0,0,1,4.38,8.75,40.36,40.36,0,0,1,1,8.37c0,1,0,2.34-.13,4a20.74,20.74,0,0,1-.87,5,14.32,14.32,0,0,1-2,4.25,3.83,3.83,0,0,1-3.25,1.75,4.2,4.2,0,0,1-1.75-.25,4.29,4.29,0,0,1-2.13-2.37,3.72,3.72,0,0,1,.13-3.13,21.9,21.9,0,0,0,1.75-9.25q0-11-6.75-14.75T624.75,31H603.5V145.5h25.25a109.21,109.21,0,0,0,11-.5,21.13,21.13,0,0,0,8.5-2.5,13,13,0,0,0,5.37-6q1.88-4,1.88-11a28.28,28.28,0,0,0-1.88-11.25,15.72,15.72,0,0,0-5.5-6.75,21.5,21.5,0,0,0-8.5-3.37,61.1,61.1,0,0,0-10.87-.88h-10a3.68,3.68,0,0,1-2.88-1.25,4.31,4.31,0,0,1-1.12-3c0-2.66,1.33-4,4-4h10a61.72,61.72,0,0,1,14.12,1.5,27.88,27.88,0,0,1,11,5.13,24.71,24.71,0,0,1,7.25,9.37q2.63,5.76,2.63,14.5,0,9-2.63,14.5a21.18,21.18,0,0,1-7.25,8.63,26.72,26.72,0,0,1-11,4.12A91.12,91.12,0,0,1,628.75,153.75Zm6.5,22.25H599.5q-4,0-4-4a4.35,4.35,0,0,1,1.12-3,3.71,3.71,0,0,1,2.88-1.25h35.75q20.49,0,31.12-11.75T677,124q0-21.24-10.88-31.87T634.25,81.5h-15.5a4.31,4.31,0,0,1-3-1.12,3.68,3.68,0,0,1-1.25-2.88,4.27,4.27,0,0,1,4.25-4.25h15.5q24.24,0,37.62,13T685.25,124q0,23.76-13,37.88T635.25,176ZM670.5,71.25c-2-.5-3.34-1.29-4-2.37a3.94,3.94,0,0,1-.25-3.63c.5-2,1.91-3,4.25-3a3.63,3.63,0,0,1,1.5.25,3.79,3.79,0,0,1,2.5,2.13,5.34,5.34,0,0,1,.25,3.62A4.35,4.35,0,0,1,670.5,71.25Z"/><path d="M722.5,176q-5-1.5-3.75-5.5L780.25,5.25a4.16,4.16,0,0,1,4-2.75h3.5a4.18,4.18,0,0,1,4,2.75L821.5,96a4.37,4.37,0,0,1-.25,3.25,3.83,3.83,0,0,1-2.5,2c-.34,0-.55,0-.63.13a1,1,0,0,1-.62.12q-2.76,0-4-3L785.75,14,726.5,173.5A4.19,4.19,0,0,1,722.5,176Zm23.5.5a6,6,0,0,1-3.75-2.37,4.52,4.52,0,0,1-.5-3.63c.83-2.16,2.25-3.25,4.25-3.25a1.65,1.65,0,0,1,.75.13,1.76,1.76,0,0,0,.75.12,4.67,4.67,0,0,1,2.5,2.38,4.72,4.72,0,0,1,.25,3.37v.25A4.35,4.35,0,0,1,746,176.5Zm4.5-13.75q-5-1.5-3.75-5.5L781.5,54.75Q783,52,785.5,52a1.65,1.65,0,0,1,.75.13,1.11,1.11,0,0,0,.5.12,3.79,3.79,0,0,1,2.5,2.13,4.13,4.13,0,0,1,.25,3.12L754.5,160A4.17,4.17,0,0,1,750.5,162.75Zm86.75-.25a3.48,3.48,0,0,1-3.75-2.75L827.25,141H777.5a3.68,3.68,0,0,1-2.88-1.25,4.31,4.31,0,0,1-1.12-3c0-2.66,1.33-4,4-4h52.75a4.18,4.18,0,0,1,4,2.75l7,21.75a3.93,3.93,0,0,1-2.75,5ZM864,176a4.17,4.17,0,0,1-4-2.5L840,119H784.5a4,4,0,0,1-3.13-1.25,4.31,4.31,0,0,1-1.12-3c0-2.66,1.41-4,4.25-4H843a4.05,4.05,0,0,1,3.75,2.25l21,57.5q1.25,4-2.5,5.25Zm-27.5-74.75a4.15,4.15,0,0,1-4-2.75l-25-76.75c-.84-2.66,0-4.41,2.5-5.25a2.87,2.87,0,0,1,1.25-.25,3.9,3.9,0,0,1,4,2.75L840.5,95.75a4.37,4.37,0,0,1-.25,3.25,3.83,3.83,0,0,1-2.5,2Z"/><path d="M913.24,30V171.5c0,2.84-1.33,4.25-4,4.25-2.83,0-4.25-1.41-4.25-4.25V26a4.36,4.36,0,0,1,1.13-3,4,4,0,0,1,3.12-1.25H959a79.42,79.42,0,0,1,16.63,1.63,33.08,33.08,0,0,1,13,5.62A26.68,26.68,0,0,1,997,39.63q3,6.61,3,16.62,0,35.25-39.5,35.25h-7.75a4.27,4.27,0,0,1-4.25-4.25,3.71,3.71,0,0,1,1.25-2.87,4.36,4.36,0,0,1,3-1.13h7.75q14.5,0,22.88-5.75t8.37-21.25q0-8-2.37-13.12a19,19,0,0,0-6.63-8,26.94,26.94,0,0,0-10.37-4A74.2,74.2,0,0,0,959,30ZM982,157.5a3.42,3.42,0,0,1,.63,3,4.58,4.58,0,0,1-1.63,2.75,4,4,0,0,1-2.5.75,3.72,3.72,0,0,1-3.25-2l-48.5-72q-2.25-3.5,1.25-5.75a3.06,3.06,0,0,1,2.25-.75,5.05,5.05,0,0,1,3.5,1.75ZM931.24,124c2.67,0,4,1.34,4,4v43.5c0,2.84-1.33,4.25-4,4.25a4.35,4.35,0,0,1-3-1.12A4,4,0,0,1,927,171.5V128a3.71,3.71,0,0,1,1.25-2.87A4.36,4.36,0,0,1,931.24,124Zm43-14,40.5,59.25c1.5,2.34,1.17,4.25-1,5.75a3.63,3.63,0,0,1-2.25.75A4.06,4.06,0,0,1,1008,174l-44.5-65.5q-1.5-1.74-.25-4.25A4.05,4.05,0,0,1,967,102a54.81,54.81,0,0,0,19.25-3.25,42.73,42.73,0,0,0,15-9.25,40.49,40.49,0,0,0,9.63-14.5,51.78,51.78,0,0,0,3.37-19.25q0-24-12-34.62T967,10.5h-35.5c-2.66,0-4-1.41-4-4.25,0-2.66,1.34-4,4-4H967q26.5,0,41,12.88t14.5,40.62q0,23-12.87,37.13T974.24,110Zm13.5,57a3.84,3.84,0,0,1,2.75,2.13,5.28,5.28,0,0,1,.25,3.62h-.25c-.5,2-1.91,3-4.25,3a6,6,0,0,1-3.75-2.37A4.11,4.11,0,0,1,982,170v-.25a4.35,4.35,0,0,1,4.25-3A3.56,3.56,0,0,1,987.74,167Z"/><path d="M1111.74,6V85h18.75a3.71,3.71,0,0,1,2.88,1.25,4.35,4.35,0,0,1,1.12,3V153c0,2.84-1.33,4.25-4,4.25a4.31,4.31,0,0,1-3-1.12,4,4,0,0,1-1.25-3.13V93.25h-18.5a4.31,4.31,0,0,1-3-1.12,3.71,3.71,0,0,1-1.25-2.88V10H1058q-4.24,0-4.25-4,0-4.24,4.25-4.25h49.75Q1111.75,1.75,1111.74,6Zm-23.25,17.75a3.71,3.71,0,0,1,2.88,1.25,4.35,4.35,0,0,1,1.12,3q0,4-4,4H1058q-4.24,0-4.25-4a4.36,4.36,0,0,1,1.13-3,4,4,0,0,1,3.12-1.25Zm23.5,148.5q0,4-4,4a4.31,4.31,0,0,1-3-1.12,3.71,3.71,0,0,1-1.25-2.88V112a4,4,0,0,1,1.25-3.12,4.32,4.32,0,0,1,3-1.13q4,0,4,4.25Zm18.5-170.5H1163q4,0,4,4.25,0,4-4,4h-32.5a4.31,4.31,0,0,1-3-1.12A3.71,3.71,0,0,1,1126.24,6a4,4,0,0,1,1.25-3.12A4.32,4.32,0,0,1,1130.49,1.75ZM1126.24,67V28a4.27,4.27,0,0,1,4.25-4.25h46.25a4,4,0,0,1,3.13,1.25,4.35,4.35,0,0,1,1.12,3q0,4-4.25,4h-42.25V67q0,4-4,4a4.31,4.31,0,0,1-3-1.12A3.71,3.71,0,0,1,1126.24,67Zm52-65.5A3.84,3.84,0,0,1,1181,3.75a5.12,5.12,0,0,1,.25,3.5H1181a3.9,3.9,0,0,1-4.25,3.25A7,7,0,0,1,1173,7.88a4.07,4.07,0,0,1-.5-3.38l.25-.25q.75-3,4.25-3A2,2,0,0,1,1178.24,1.5Z"/><path d="M1217.49,83a4.31,4.31,0,0,1-3-1.12,3.68,3.68,0,0,1-1.25-2.88V6.25a3.67,3.67,0,0,1,1.25-2.87,4.32,4.32,0,0,1,3-1.13c2.66,0,4,1.34,4,4V79C1221.49,81.67,1220.15,83,1217.49,83Zm0,91.5a4.27,4.27,0,0,1-4.25-4.25v-68.5a4.27,4.27,0,0,1,4.25-4.25h75.25a3.73,3.73,0,0,1,2.88,1.25,4.35,4.35,0,0,1,1.12,3c0,2.67-1.34,4-4,4h-71.25v64.5a4.31,4.31,0,0,1-1.12,3A3.69,3.69,0,0,1,1217.49,174.5Zm22.25-91.25a4,4,0,0,1-3.12-1.25,4.32,4.32,0,0,1-1.13-3V6.25c0-2.66,1.41-4,4.25-4,2.66,0,4,1.34,4,4V75h68.75c2.83,0,4.25,1.34,4.25,4v77a4.31,4.31,0,0,1-1.12,3,4,4,0,0,1-3.13,1.25,3.66,3.66,0,0,1-2.87-1.25,4.32,4.32,0,0,1-1.13-3V83.25Zm-4.25,37.25c0-2.66,1.41-4,4.25-4,2.66,0,4,1.34,4,4v50.75c0,2.67-1.34,4-4,4-2.84,0-4.25-1.33-4.25-4Zm78.75,45a4.67,4.67,0,0,1,2.5,2.38,4.72,4.72,0,0,1,.25,3.37v.25a4.35,4.35,0,0,1-4.25,3A5.76,5.76,0,0,1,1309,172a4.35,4.35,0,0,1-.5-3.5,3.9,3.9,0,0,1,4.25-3.25,1.65,1.65,0,0,1,.75.13A1.76,1.76,0,0,0,1314.24,165.5Zm-1.75-102q-4,0-4-4V6.5a4.36,4.36,0,0,1,1.13-3,3.69,3.69,0,0,1,2.87-1.25,4,4,0,0,1,3.13,1.25,4.35,4.35,0,0,1,1.12,3v53Q1316.74,63.51,1312.49,63.5Zm22.25,111a3.66,3.66,0,0,1-2.87-1.25,4.32,4.32,0,0,1-1.13-3V23.75c0-2.66,1.33-4,4-4a4.36,4.36,0,0,1,3,1.13,3.71,3.71,0,0,1,1.25,2.87v146.5a4.27,4.27,0,0,1-4.25,4.25Z"/><path d="M1382.74,82.25a4.27,4.27,0,0,1-4.25-4.25V5a4.09,4.09,0,0,1,1.25-3,4.09,4.09,0,0,1,3-1.25A3.71,3.71,0,0,1,1385.61,2a4.36,4.36,0,0,1,1.13,3V74H1451a4.36,4.36,0,0,1,3,1.13,3.71,3.71,0,0,1,1.25,2.87,4.27,4.27,0,0,1-4.25,4.25Zm0,94.5a4.27,4.27,0,0,1-4.25-4.25V100a4.27,4.27,0,0,1,4.25-4.25H1451a4.27,4.27,0,0,1,4.25,4.25,3.71,3.71,0,0,1-1.25,2.88,4.35,4.35,0,0,1-3,1.12h-64.25v64.5h86.75c2.66,0,4,1.34,4,4a4.32,4.32,0,0,1-1.13,3,3.71,3.71,0,0,1-2.87,1.25Zm20.5-167a3.68,3.68,0,0,1-2.88-1.25,4.31,4.31,0,0,1-1.12-3c0-2.66,1.33-4,4-4h70.25a4.36,4.36,0,0,1,3,1.13,3.71,3.71,0,0,1,1.25,2.87,4.09,4.09,0,0,1-1.25,3,4.09,4.09,0,0,1-3,1.25ZM1473,23.25a4.27,4.27,0,0,1,4.25,4.25,3.71,3.71,0,0,1-1.25,2.88,4.35,4.35,0,0,1-3,1.12h-64.75v28a4.27,4.27,0,0,1-4.25,4.25,3.68,3.68,0,0,1-2.88-1.25,4.31,4.31,0,0,1-1.12-3v-32a4.35,4.35,0,0,1,1.12-3,3.71,3.71,0,0,1,2.88-1.25Zm-69,90.25a4.36,4.36,0,0,1,3,1.13,4,4,0,0,1,1.25,3.12v29.5h50a4.27,4.27,0,0,1,4.25,4.25,3.71,3.71,0,0,1-1.25,2.88,4.35,4.35,0,0,1-3,1.12H1404q-4,0-4-4V117.75Q1400,113.51,1404,113.5Zm69.75,33.5a3.79,3.79,0,0,1,2.5,2.13,4.72,4.72,0,0,1,.25,3.37v.25a4.35,4.35,0,0,1-4.25,3,6,6,0,0,1-3.75-2.37,4.52,4.52,0,0,1-.5-3.63,4.34,4.34,0,0,1,4.25-3A3.63,3.63,0,0,1,1473.74,147Z"/><path d="M1511.74,152.75q-4,0-4-4V4c0-2.66,1.33-4,4-4,2.83,0,4.25,1.34,4.25,4V144.5h66.5a4,4,0,0,1,3.12,1.25,4.36,4.36,0,0,1,1.13,3q0,4-4.25,4Zm18.5-126.25c0-2.66,1.33-4,4-4a4.36,4.36,0,0,1,3,1.13,3.71,3.71,0,0,1,1.25,2.87V128.75a3.71,3.71,0,0,1-1.25,2.88,4.35,4.35,0,0,1-3,1.12q-4,0-4-4Zm.25,143.75a3.67,3.67,0,0,1,1.25-2.87,4.32,4.32,0,0,1,3-1.13h61.5c2.66,0,4,1.34,4,4a4.32,4.32,0,0,1-1.13,3,3.67,3.67,0,0,1-2.87,1.25h-61.5a4.27,4.27,0,0,1-4.25-4.25Zm66-17a5.76,5.76,0,0,1-3.75-2.5,4.35,4.35,0,0,1-.5-3.5V147a4.34,4.34,0,0,1,4.25-3,1.65,1.65,0,0,1,.75.13,1.76,1.76,0,0,0,.75.12,3.84,3.84,0,0,1,2.75,2.25,4.27,4.27,0,0,1,0,3.5v.25Q1600,153.25,1596.49,153.25Z"/></g></g></g></svg>